<?xml version="1.0" encoding="UTF-8" standalone="no"?><svg xmlns="http://www.w3.org/2000/svg" xmlns:xlink="http://www.w3.org/1999/xlink" contentStyleType="text/css" height="789px" preserveAspectRatio="none" style="width:1427px;height:789px;background:#FFFFFF;" version="1.1" viewBox="0 0 1427 789" width="1427px" zoomAndPan="magnify"><defs/><g><rect fill="none" height="327.3711" style="stroke:#000000;stroke-width:1.5;" width="1411" x="10" y="245.041"/><rect fill="none" height="149.5078" style="stroke:#000000;stroke-width:1.5;" width="1072" x="339" y="415.9043"/><rect fill="none" height="105.2422" style="stroke:#000000;stroke-width:1.5;" width="1401" x="10" y="586.4121"/><line style="stroke:#181818;stroke-width:0.5;stroke-dasharray:5.0,5.0;" x1="53" x2="53" y1="81.4883" y2="708.6543"/><line style="stroke:#181818;stroke-width:0.5;stroke-dasharray:5.0,5.0;" x1="424" x2="424" y1="81.4883" y2="708.6543"/><line style="stroke:#181818;stroke-width:0.5;stroke-dasharray:5.0,5.0;" x1="895.5" x2="895.5" y1="81.4883" y2="708.6543"/><line style="stroke:#181818;stroke-width:0.5;stroke-dasharray:5.0,5.0;" x1="1324" x2="1324" y1="81.4883" y2="708.6543"/><text fill="#000000" font-family="sans-serif" font-size="14" lengthAdjust="spacing" textLength="60" x="20" y="78.5352">Manager</text><ellipse cx="53" cy="13.5" fill="#E2E2F0" rx="8" ry="8" style="stroke:#181818;stroke-width:0.5;"/><path d="M53,21.5 L53,48.5 M40,29.5 L66,29.5 M53,48.5 L40,63.5 M53,48.5 L66,63.5 " fill="none" style="stroke:#181818;stroke-width:0.5;"/><text fill="#000000" font-family="sans-serif" font-size="14" lengthAdjust="spacing" textLength="60" x="20" y="721.1895">Manager</text><ellipse cx="53" cy="732.6426" fill="#E2E2F0" rx="8" ry="8" style="stroke:#181818;stroke-width:0.5;"/><path d="M53,740.6426 L53,767.6426 M40,748.6426 L66,748.6426 M53,767.6426 L40,782.6426 M53,767.6426 L66,782.6426 " fill="none" style="stroke:#181818;stroke-width:0.5;"/><text fill="#000000" font-family="sans-serif" font-size="14" lengthAdjust="spacing" textLength="144" x="349" y="78.5352">EnrollmentRequestUI</text><path d="M403.5,37 L403.5,61 M403.5,49 L420.5,49 " fill="none" style="stroke:#181818;stroke-width:0.5;"/><ellipse cx="432.5" cy="49" fill="#E2E2F0" rx="12" ry="12" style="stroke:#181818;stroke-width:0.5;"/><text fill="#000000" font-family="sans-serif" font-size="14" lengthAdjust="spacing" textLength="144" x="349" y="721.1895">EnrollmentRequestUI</text><path d="M403.5,728.1426 L403.5,752.1426 M403.5,740.1426 L420.5,740.1426 " fill="none" style="stroke:#181818;stroke-width:0.5;"/><ellipse cx="432.5" cy="740.1426" fill="#E2E2F0" rx="12" ry="12" style="stroke:#181818;stroke-width:0.5;"/><text fill="#000000" font-family="sans-serif" font-size="14" lengthAdjust="spacing" textLength="145" x="820.5" y="78.5352">EnrollmentController</text><ellipse cx="896" cy="49" fill="#E2E2F0" rx="12" ry="12" style="stroke:#181818;stroke-width:0.5;"/><polygon fill="#181818" points="892,37,898,32,896,37,898,42,892,37" style="stroke:#181818;stroke-width:1.0;"/><text fill="#000000" font-family="sans-serif" font-size="14" lengthAdjust="spacing" textLength="145" x="820.5" y="721.1895">EnrollmentController</text><ellipse cx="896" cy="740.1426" fill="#E2E2F0" rx="12" ry="12" style="stroke:#181818;stroke-width:0.5;"/><polygon fill="#181818" points="892,728.1426,898,723.1426,896,728.1426,898,733.1426,892,728.1426" style="stroke:#181818;stroke-width:1.0;"/><text fill="#000000" font-family="sans-serif" font-size="14" lengthAdjust="spacing" textLength="148" x="1247" y="78.5352">EnrollmentRepository</text><path d="M1306,29 C1306,19 1324,19 1324,19 C1324,19 1342,19 1342,29 L1342,55 C1342,65 1324,65 1324,65 C1324,65 1306,65 1306,55 L1306,29 " fill="#E2E2F0" style="stroke:#181818;stroke-width:1.5;"/><path d="M1306,29 C1306,39 1324,39 1324,39 C1324,39 1342,39 1342,29 " fill="none" style="stroke:#181818;stroke-width:1.5;"/><text fill="#000000" font-family="sans-serif" font-size="14" lengthAdjust="spacing" textLength="148" x="1247" y="721.1895">EnrollmentRepository</text><path d="M1306,734.1426 C1306,724.1426 1324,724.1426 1324,724.1426 C1324,724.1426 1342,724.1426 1342,734.1426 L1342,760.1426 C1342,770.1426 1324,770.1426 1324,770.1426 C1324,770.1426 1306,770.1426 1306,760.1426 L1306,734.1426 " fill="#E2E2F0" style="stroke:#181818;stroke-width:1.5;"/><path d="M1306,734.1426 C1306,744.1426 1324,744.1426 1324,744.1426 C1324,744.1426 1342,744.1426 1342,734.1426 " fill="none" style="stroke:#181818;stroke-width:1.5;"/><polygon fill="#181818" points="412,108.7988,422,112.7988,412,116.7988,416,112.7988" style="stroke:#181818;stroke-width:1.0;"/><line style="stroke:#181818;stroke-width:1.0;" x1="53" x2="418" y1="112.7988" y2="112.7988"/><text fill="#000000" font-family="sans-serif" font-size="13" lengthAdjust="spacing" textLength="161" x="60" y="108.0566">viewEnrollmentRequests()</text><polygon fill="#181818" points="884,138.1094,894,142.1094,884,146.1094,888,142.1094" style="stroke:#181818;stroke-width:1.0;"/><line style="stroke:#181818;stroke-width:1.0;" x1="424" x2="890" y1="142.1094" y2="142.1094"/><text fill="#000000" font-family="sans-serif" font-size="13" lengthAdjust="spacing" textLength="161" x="431" y="137.3672">viewEnrollmentRequests()</text><polygon fill="#181818" points="1312,167.4199,1322,171.4199,1312,175.4199,1316,171.4199" style="stroke:#181818;stroke-width:1.0;"/><line style="stroke:#181818;stroke-width:1.0;" x1="896" x2="1318" y1="171.4199" y2="171.4199"/><text fill="#000000" font-family="sans-serif" font-size="13" lengthAdjust="spacing" textLength="180" x="903" y="166.6777">retrieveEnrollmentRequests()</text><polygon fill="#181818" points="907,196.7305,897,200.7305,907,204.7305,903,200.7305" style="stroke:#181818;stroke-width:1.0;"/><line style="stroke:#181818;stroke-width:1.0;" x1="901" x2="1323" y1="200.7305" y2="200.7305"/><text fill="#000000" font-family="sans-serif" font-size="13" lengthAdjust="spacing" textLength="258" x="913" y="195.9883">enrollmentRequests(enrollmentRequests)</text><polygon fill="#181818" points="435,226.041,425,230.041,435,234.041,431,230.041" style="stroke:#181818;stroke-width:1.0;"/><line style="stroke:#181818;stroke-width:1.0;" x1="429" x2="895" y1="230.041" y2="230.041"/><text fill="#000000" font-family="sans-serif" font-size="13" lengthAdjust="spacing" textLength="303" x="441" y="225.2988">displayEnrollmentRequests(enrollmentRequests)</text><path d="M10,245.041 L84,245.041 L84,252.3516 L74,262.3516 L10,262.3516 L10,245.041 " fill="#EEEEEE" style="stroke:#000000;stroke-width:1.5;"/><rect fill="none" height="327.3711" style="stroke:#000000;stroke-width:1.5;" width="1411" x="10" y="245.041"/><text fill="#000000" font-family="sans-serif" font-size="13" font-weight="bold" lengthAdjust="spacing" textLength="29" x="25" y="258.6094">loop</text><text fill="#000000" font-family="sans-serif" font-size="11" font-weight="bold" lengthAdjust="spacing" textLength="164" x="99" y="257.6758">[for each enrollment request]</text><polygon fill="#181818" points="1312,279.6621,1322,283.6621,1312,287.6621,1316,283.6621" style="stroke:#181818;stroke-width:1.0;"/><line style="stroke:#181818;stroke-width:1.0;" x1="896" x2="1318" y1="283.6621" y2="283.6621"/><text fill="#000000" font-family="sans-serif" font-size="13" lengthAdjust="spacing" textLength="335" x="903" y="278.9199">retrieveEnrollmentRequestDetails(enrollmentRequest)</text><polygon fill="#181818" points="907,308.9727,897,312.9727,907,316.9727,903,312.9727" style="stroke:#181818;stroke-width:1.0;"/><line style="stroke:#181818;stroke-width:1.0;" x1="901" x2="1323" y1="312.9727" y2="312.9727"/><text fill="#000000" font-family="sans-serif" font-size="13" lengthAdjust="spacing" textLength="332" x="913" y="308.2305">enrollmentRequestDetails(enrollmentRequestDetails)</text><polygon fill="#181818" points="435,338.2832,425,342.2832,435,346.2832,431,342.2832" style="stroke:#181818;stroke-width:1.0;"/><line style="stroke:#181818;stroke-width:1.0;" x1="429" x2="895" y1="342.2832" y2="342.2832"/><text fill="#000000" font-family="sans-serif" font-size="13" lengthAdjust="spacing" textLength="377" x="441" y="337.541">displayEnrollmentRequestDetails(enrollmentRequestDetails)</text><polygon fill="#181818" points="412,367.5938,422,371.5938,412,375.5938,416,371.5938" style="stroke:#181818;stroke-width:1.0;"/><line style="stroke:#181818;stroke-width:1.0;" x1="53" x2="418" y1="371.5938" y2="371.5938"/><text fill="#000000" font-family="sans-serif" font-size="13" lengthAdjust="spacing" textLength="347" x="60" y="366.8516">approveOrRejectEnrollmentRequest(enrollmentRequest)</text><polygon fill="#181818" points="884,396.9043,894,400.9043,884,404.9043,888,400.9043" style="stroke:#181818;stroke-width:1.0;"/><line style="stroke:#181818;stroke-width:1.0;" x1="424" x2="890" y1="400.9043" y2="400.9043"/><text fill="#000000" font-family="sans-serif" font-size="13" lengthAdjust="spacing" textLength="448" x="431" y="396.1621">approveOrRejectEnrollmentRequest(enrollmentRequest, approvalStatus)</text><path d="M339,415.9043 L401,415.9043 L401,423.2148 L391,433.2148 L339,433.2148 L339,415.9043 " fill="#EEEEEE" style="stroke:#000000;stroke-width:1.5;"/><rect fill="none" height="149.5078" style="stroke:#000000;stroke-width:1.5;" width="1072" x="339" y="415.9043"/><text fill="#000000" font-family="sans-serif" font-size="13" font-weight="bold" lengthAdjust="spacing" textLength="17" x="354" y="429.4727">alt</text><text fill="#000000" font-family="sans-serif" font-size="11" font-weight="bold" lengthAdjust="spacing" textLength="62" x="416" y="428.5391">[Approved]</text><polygon fill="#181818" points="1312,450.5254,1322,454.5254,1312,458.5254,1316,454.5254" style="stroke:#181818;stroke-width:1.0;"/><line style="stroke:#181818;stroke-width:1.0;" x1="896" x2="1318" y1="454.5254" y2="454.5254"/><text fill="#000000" font-family="sans-serif" font-size="13" lengthAdjust="spacing" textLength="404" x="903" y="449.7832">updateEnrollmentRequestStatus(enrollmentRequest, "Approved")</text><polygon fill="#181818" points="435,479.8359,425,483.8359,435,487.8359,431,483.8359" style="stroke:#181818;stroke-width:1.0;"/><line style="stroke:#181818;stroke-width:1.0;" x1="429" x2="1323" y1="483.8359" y2="483.8359"/><text fill="#000000" font-family="sans-serif" font-size="13" lengthAdjust="spacing" textLength="186" x="441" y="479.0938">enrollmentRequestApproved()</text><line style="stroke:#000000;stroke-width:1.0;stroke-dasharray:2.0,2.0;" x1="339" x2="1411" y1="492.8359" y2="492.8359"/><text fill="#000000" font-family="sans-serif" font-size="11" font-weight="bold" lengthAdjust="spacing" textLength="55" x="344" y="503.4707">[Rejected]</text><polygon fill="#181818" points="1312,524.1016,1322,528.1016,1312,532.1016,1316,528.1016" style="stroke:#181818;stroke-width:1.0;"/><line style="stroke:#181818;stroke-width:1.0;" x1="896" x2="1318" y1="528.1016" y2="528.1016"/><text fill="#000000" font-family="sans-serif" font-size="13" lengthAdjust="spacing" textLength="397" x="903" y="523.3594">updateEnrollmentRequestStatus(enrollmentRequest, "Rejected")</text><polygon fill="#181818" points="435,553.4121,425,557.4121,435,561.4121,431,557.4121" style="stroke:#181818;stroke-width:1.0;"/><line style="stroke:#181818;stroke-width:1.0;" x1="429" x2="1323" y1="557.4121" y2="557.4121"/><text fill="#000000" font-family="sans-serif" font-size="13" lengthAdjust="spacing" textLength="179" x="441" y="552.6699">enrollmentRequestRejected()</text><path d="M10,586.4121 L72,586.4121 L72,593.7227 L62,603.7227 L10,603.7227 L10,586.4121 " fill="#EEEEEE" style="stroke:#000000;stroke-width:1.5;"/><rect fill="none" height="105.2422" style="stroke:#000000;stroke-width:1.5;" width="1401" x="10" y="586.4121"/><text fill="#000000" font-family="sans-serif" font-size="13" font-weight="bold" lengthAdjust="spacing" textLength="17" x="25" y="599.9805">alt</text><text fill="#000000" font-family="sans-serif" font-size="11" font-weight="bold" lengthAdjust="spacing" textLength="37" x="87" y="599.0469">[Error]</text><polygon fill="#181818" points="435,621.0332,425,625.0332,435,629.0332,431,625.0332" style="stroke:#181818;stroke-width:1.0;"/><line style="stroke:#181818;stroke-width:1.0;" x1="429" x2="1323" y1="625.0332" y2="625.0332"/><text fill="#000000" font-family="sans-serif" font-size="13" lengthAdjust="spacing" textLength="95" x="441" y="620.291">errorOccurred()</text><polygon fill="#181818" points="412,650.3438,422,654.3438,412,658.3438,416,654.3438" style="stroke:#181818;stroke-width:1.0;"/><line style="stroke:#181818;stroke-width:1.0;" x1="53" x2="418" y1="654.3438" y2="654.3438"/><text fill="#000000" font-family="sans-serif" font-size="13" lengthAdjust="spacing" textLength="137" x="60" y="649.6016">displayErrorMessage()</text><polygon fill="#181818" points="1312,679.6543,1322,683.6543,1312,687.6543,1316,683.6543" style="stroke:#181818;stroke-width:1.0;"/><line style="stroke:#181818;stroke-width:1.0;" x1="896" x2="1318" y1="683.6543" y2="683.6543"/><text fill="#000000" font-family="sans-serif" font-size="13" lengthAdjust="spacing" textLength="374" x="903" y="678.9121">updateEnrollmentRequestStatus(enrollmentRequest, "Error")</text><!--MD5=[01d7ce226db7f35b82dbe852165e0ace]
@startuml
actor Manager
boundary EnrollmentRequestUI
control EnrollmentController
database EnrollmentRepository

Manager -> EnrollmentRequestUI: viewEnrollmentRequests()
EnrollmentRequestUI -> EnrollmentController: viewEnrollmentRequests()
EnrollmentController -> EnrollmentRepository: retrieveEnrollmentRequests()
EnrollmentRepository -> EnrollmentController: enrollmentRequests(enrollmentRequests)
EnrollmentController -> EnrollmentRequestUI: displayEnrollmentRequests(enrollmentRequests)
loop for each enrollment request
    EnrollmentController -> EnrollmentRepository: retrieveEnrollmentRequestDetails(enrollmentRequest)
    EnrollmentRepository -> EnrollmentController: enrollmentRequestDetails(enrollmentRequestDetails)
    EnrollmentController -> EnrollmentRequestUI: displayEnrollmentRequestDetails(enrollmentRequestDetails)
    Manager -> EnrollmentRequestUI: approveOrRejectEnrollmentRequest(enrollmentRequest)
    EnrollmentRequestUI -> EnrollmentController: approveOrRejectEnrollmentRequest(enrollmentRequest, approvalStatus)
    alt Approved
        EnrollmentController -> EnrollmentRepository: updateEnrollmentRequestStatus(enrollmentRequest, "Approved")
        EnrollmentRepository -> EnrollmentRequestUI: enrollmentRequestApproved()
    else Rejected
        EnrollmentController -> EnrollmentRepository: updateEnrollmentRequestStatus(enrollmentRequest, "Rejected")
        EnrollmentRepository -> EnrollmentRequestUI: enrollmentRequestRejected()
    end
end
alt Error
    EnrollmentRepository -> EnrollmentRequestUI: errorOccurred()
    Manager -> EnrollmentRequestUI: displayErrorMessage()
    EnrollmentController -> EnrollmentRepository: updateEnrollmentRequestStatus(enrollmentRequest, "Error")
end
@enduml

PlantUML version 1.2022.12(Sun Oct 23 19:12:26 WEST 2022)
(GPL source distribution)
Java Runtime: OpenJDK Runtime Environment
JVM: OpenJDK 64-Bit Server VM
Default Encoding: UTF-8
Language: pt
Country: PT
--></g></svg>