<?xml version="1.0" encoding="UTF-8" standalone="no"?><svg xmlns="http://www.w3.org/2000/svg" xmlns:xlink="http://www.w3.org/1999/xlink" contentStyleType="text/css" height="507px" preserveAspectRatio="none" style="width:294px;height:507px;background:#FFFFFF;" version="1.1" viewBox="0 0 294 507" width="294px" zoomAndPan="magnify"><defs/><g><!--MD5=[e18835585c17a5e1d1f8b20f967b2f2e]
class EnrollmentRequestUI--><g id="elem_EnrollmentRequestUI"><rect codeLine="1" fill="#F1F1F1" height="97.4648" id="EnrollmentRequestUI" rx="2.5" ry="2.5" style="stroke:#181818;stroke-width:0.5;" width="280" x="7" y="7"/><ellipse cx="70.75" cy="23" fill="#ADD1B2" rx="11" ry="11" style="stroke:#181818;stroke-width:1.0;"/><path d="M73.7231,28.6431 Q73.1421,28.9419 72.5029,29.0913 Q71.8638,29.2407 71.1582,29.2407 Q68.6514,29.2407 67.3315,27.5889 Q66.0117,25.937 66.0117,22.8159 Q66.0117,19.6865 67.3315,18.0347 Q68.6514,16.3828 71.1582,16.3828 Q71.8638,16.3828 72.5112,16.5322 Q73.1587,16.6816 73.7231,16.9805 L73.7231,19.7031 Q73.0923,19.1221 72.4988,18.8523 Q71.9053,18.5825 71.2744,18.5825 Q69.9297,18.5825 69.2449,19.6492 Q68.5601,20.7158 68.5601,22.8159 Q68.5601,24.9077 69.2449,25.9744 Q69.9297,27.041 71.2744,27.041 Q71.9053,27.041 72.4988,26.7712 Q73.0923,26.5015 73.7231,25.9204 Z " fill="#000000"/><text fill="#000000" font-family="sans-serif" font-size="14" lengthAdjust="spacing" textLength="144" x="91.25" y="28.291">EnrollmentRequestUI</text><line style="stroke:#181818;stroke-width:0.5;" x1="8" x2="286" y1="39" y2="39"/><line style="stroke:#181818;stroke-width:0.5;" x1="8" x2="286" y1="47" y2="47"/><ellipse cx="18" cy="60.7441" fill="#84BE84" rx="3" ry="3" style="stroke:#038048;stroke-width:1.0;"/><text fill="#000000" font-family="sans-serif" font-size="14" lengthAdjust="spacing" textLength="177" x="27" y="64.5352">viewEnrollmentRequests()</text><ellipse cx="18" cy="77.2324" fill="#84BE84" rx="3" ry="3" style="stroke:#038048;stroke-width:1.0;"/><text fill="#000000" font-family="sans-serif" font-size="14" lengthAdjust="spacing" textLength="195" x="27" y="81.0234">displayEnrollmentRequests()</text><ellipse cx="18" cy="93.7207" fill="#84BE84" rx="3" ry="3" style="stroke:#038048;stroke-width:1.0;"/><text fill="#000000" font-family="sans-serif" font-size="14" lengthAdjust="spacing" textLength="254" x="27" y="97.5117">approveOrRejectEnrollmentRequest()</text></g><!--MD5=[2cba873b17b4ad164e04d7abcf0844a6]
class EnrollmentController--><g id="elem_EnrollmentController"><rect codeLine="7" fill="#F1F1F1" height="130.4414" id="EnrollmentController" rx="2.5" ry="2.5" style="stroke:#181818;stroke-width:0.5;" width="280" x="7" y="164"/><ellipse cx="70.25" cy="180" fill="#ADD1B2" rx="11" ry="11" style="stroke:#181818;stroke-width:1.0;"/><path d="M73.2231,185.6431 Q72.6421,185.9419 72.0029,186.0913 Q71.3638,186.2407 70.6582,186.2407 Q68.1514,186.2407 66.8315,184.5889 Q65.5117,182.937 65.5117,179.8159 Q65.5117,176.6865 66.8315,175.0347 Q68.1514,173.3828 70.6582,173.3828 Q71.3638,173.3828 72.0112,173.5322 Q72.6587,173.6816 73.2231,173.9805 L73.2231,176.7031 Q72.5923,176.1221 71.9988,175.8523 Q71.4053,175.5825 70.7744,175.5825 Q69.4297,175.5825 68.7449,176.6492 Q68.0601,177.7158 68.0601,179.8159 Q68.0601,181.9077 68.7449,182.9744 Q69.4297,184.041 70.7744,184.041 Q71.4053,184.041 71.9988,183.7712 Q72.5923,183.5015 73.2231,182.9204 Z " fill="#000000"/><text fill="#000000" font-family="sans-serif" font-size="14" lengthAdjust="spacing" textLength="145" x="90.75" y="185.291">EnrollmentController</text><line style="stroke:#181818;stroke-width:0.5;" x1="8" x2="286" y1="196" y2="196"/><line style="stroke:#181818;stroke-width:0.5;" x1="8" x2="286" y1="204" y2="204"/><ellipse cx="18" cy="217.7441" fill="#84BE84" rx="3" ry="3" style="stroke:#038048;stroke-width:1.0;"/><text fill="#000000" font-family="sans-serif" font-size="14" lengthAdjust="spacing" textLength="199" x="27" y="221.5352">retrieveEnrollmentRequests()</text><ellipse cx="18" cy="234.2324" fill="#84BE84" rx="3" ry="3" style="stroke:#038048;stroke-width:1.0;"/><text fill="#000000" font-family="sans-serif" font-size="14" lengthAdjust="spacing" textLength="238" x="27" y="238.0234">retrieveEnrollmentRequestDetails()</text><ellipse cx="18" cy="250.7207" fill="#84BE84" rx="3" ry="3" style="stroke:#038048;stroke-width:1.0;"/><text fill="#000000" font-family="sans-serif" font-size="14" lengthAdjust="spacing" textLength="254" x="27" y="254.5117">approveOrRejectEnrollmentRequest()</text><ellipse cx="18" cy="267.209" fill="#84BE84" rx="3" ry="3" style="stroke:#038048;stroke-width:1.0;"/><text fill="#000000" font-family="sans-serif" font-size="14" lengthAdjust="spacing" textLength="230" x="27" y="271">updateEnrollmentRequestStatus()</text><ellipse cx="18" cy="283.6973" fill="#84BE84" rx="3" ry="3" style="stroke:#038048;stroke-width:1.0;"/><text fill="#000000" font-family="sans-serif" font-size="14" lengthAdjust="spacing" textLength="195" x="27" y="287.4883">displayEnrollmentRequests()</text></g><!--MD5=[9dcfeacc8a876f0e26274e3df6bf5fa6]
class EnrollmentRepository--><g id="elem_EnrollmentRepository"><rect codeLine="15" fill="#F1F1F1" height="146.9297" id="EnrollmentRepository" rx="2.5" ry="2.5" style="stroke:#181818;stroke-width:0.5;" width="256" x="19" y="354"/><ellipse cx="68.75" cy="370" fill="#ADD1B2" rx="11" ry="11" style="stroke:#181818;stroke-width:1.0;"/><path d="M71.7231,375.6431 Q71.1421,375.9419 70.5029,376.0913 Q69.8638,376.2407 69.1582,376.2407 Q66.6514,376.2407 65.3315,374.5889 Q64.0117,372.937 64.0117,369.8159 Q64.0117,366.6865 65.3315,365.0347 Q66.6514,363.3828 69.1582,363.3828 Q69.8638,363.3828 70.5112,363.5322 Q71.1587,363.6816 71.7231,363.9805 L71.7231,366.7031 Q71.0923,366.1221 70.4988,365.8523 Q69.9053,365.5825 69.2744,365.5825 Q67.9297,365.5825 67.2449,366.6492 Q66.5601,367.7158 66.5601,369.8159 Q66.5601,371.9077 67.2449,372.9744 Q67.9297,374.041 69.2744,374.041 Q69.9053,374.041 70.4988,373.7712 Q71.0923,373.5015 71.7231,372.9204 Z " fill="#000000"/><text fill="#000000" font-family="sans-serif" font-size="14" lengthAdjust="spacing" textLength="148" x="89.25" y="375.291">EnrollmentRepository</text><line style="stroke:#181818;stroke-width:0.5;" x1="20" x2="274" y1="386" y2="386"/><line style="stroke:#181818;stroke-width:0.5;" x1="20" x2="274" y1="394" y2="394"/><ellipse cx="30" cy="407.7441" fill="#84BE84" rx="3" ry="3" style="stroke:#038048;stroke-width:1.0;"/><text fill="#000000" font-family="sans-serif" font-size="14" lengthAdjust="spacing" textLength="199" x="39" y="411.5352">retrieveEnrollmentRequests()</text><ellipse cx="30" cy="424.2324" fill="#84BE84" rx="3" ry="3" style="stroke:#038048;stroke-width:1.0;"/><text fill="#000000" font-family="sans-serif" font-size="14" lengthAdjust="spacing" textLength="186" x="39" y="428.0234">enrollmentRequestDetails()</text><ellipse cx="30" cy="440.7207" fill="#84BE84" rx="3" ry="3" style="stroke:#038048;stroke-width:1.0;"/><text fill="#000000" font-family="sans-serif" font-size="14" lengthAdjust="spacing" textLength="230" x="39" y="444.5117">updateEnrollmentRequestStatus()</text><ellipse cx="30" cy="457.209" fill="#84BE84" rx="3" ry="3" style="stroke:#038048;stroke-width:1.0;"/><text fill="#000000" font-family="sans-serif" font-size="14" lengthAdjust="spacing" textLength="207" x="39" y="461">enrollmentRequestApproved()</text><ellipse cx="30" cy="473.6973" fill="#84BE84" rx="3" ry="3" style="stroke:#038048;stroke-width:1.0;"/><text fill="#000000" font-family="sans-serif" font-size="14" lengthAdjust="spacing" textLength="198" x="39" y="477.4883">enrollmentRequestRejected()</text><ellipse cx="30" cy="490.1855" fill="#84BE84" rx="3" ry="3" style="stroke:#038048;stroke-width:1.0;"/><text fill="#000000" font-family="sans-serif" font-size="14" lengthAdjust="spacing" textLength="108" x="39" y="493.9766">errorOccurred()</text></g><!--MD5=[77407fe17dfe102915bd36ef71e634ad]
link EnrollmentRequestUI to EnrollmentController--><g id="link_EnrollmentRequestUI_EnrollmentController"><path codeLine="24" d="M147,104.27 C147,116.51 147,130.05 147,143.54 " fill="none" id="EnrollmentRequestUI-to-EnrollmentController" style="stroke:#181818;stroke-width:1.0;"/><polygon fill="none" points="154,143.82,147,163.82,140,143.82,154,143.82" style="stroke:#181818;stroke-width:1.0;"/></g><!--MD5=[8afc63a4eb60a08d74779bde6dcc2ade]
link EnrollmentController to EnrollmentRepository--><g id="link_EnrollmentController_EnrollmentRepository"><path codeLine="25" d="M147,294.07 C147,306.71 147,320.22 147,333.59 " fill="none" id="EnrollmentController-to-EnrollmentRepository" style="stroke:#181818;stroke-width:1.0;"/><polygon fill="none" points="154,333.66,147,353.66,140,333.66,154,333.66" style="stroke:#181818;stroke-width:1.0;"/></g><!--MD5=[ebaa561e05f6cd0d6fd9ea6ebe5df9e3]
@startuml
class EnrollmentRequestUI {
  + viewEnrollmentRequests()
  + displayEnrollmentRequests()
  + approveOrRejectEnrollmentRequest()
}

class EnrollmentController {
  + retrieveEnrollmentRequests()
  + retrieveEnrollmentRequestDetails()
  + approveOrRejectEnrollmentRequest()
  + updateEnrollmentRequestStatus()
  + displayEnrollmentRequests()
}

class EnrollmentRepository {
  + retrieveEnrollmentRequests()
  + enrollmentRequestDetails()
  + updateEnrollmentRequestStatus()
  + enrollmentRequestApproved()
  + enrollmentRequestRejected()
  + errorOccurred()
}

EnrollmentRequestUI - -|> EnrollmentController
EnrollmentController - -|> EnrollmentRepository
@enduml

PlantUML version 1.2022.12(Sun Oct 23 19:12:26 WEST 2022)
(GPL source distribution)
Java Runtime: OpenJDK Runtime Environment
JVM: OpenJDK 64-Bit Server VM
Default Encoding: UTF-8
Language: pt
Country: PT
--></g></svg>